<svg id="Layer_1" data-name="Layer 1" xmlns="http://www.w3.org/2000/svg" viewBox="0 0 631.47 631.47"><defs><style>.cls-1{fill:#fff;}.cls-2{fill:none;stroke:#fff;stroke-miterlimit:10;stroke-width:6px;}</style></defs><title>backArrow</title><path class="cls-1" d="M560.41,324.59l.7.15H258.93l95-95.2a25,25,0,0,0,0-35.08l-14.78-14.78a24.72,24.72,0,0,0-34.9,0L141.41,342.48a24.89,24.89,0,0,0,0,35L304.25,540.34a24.75,24.75,0,0,0,34.9,0l14.78-14.79a24.45,24.45,0,0,0,7.2-17.44,23.71,23.71,0,0,0-7.2-17.12l-96.07-95.74H560.75c13.61,0,25-11.73,25-25.33V349C585.79,335.4,574,324.59,560.41,324.59Z" transform="translate(-44.27 -44.27)"/><circle class="cls-2" cx="315.73" cy="315.73" r="312.73"/></svg>